<svg xmlns="http://www.w3.org/2000/svg" width="24" height="24" viewBox="0 0 24 24" fill="currentColor">
  <path d="M7.953 15.066l-4.11-4.118 1.98-1.98 4.12 4.12-2 1.978zm2.007-5.03l2.06-2.06 4.12 4.12-2.06 2.06-4.12-4.12zm4.12-4.12L12 3.856l2.06-2.06 2.06 2.06-2.06 2.06zm-8.06 8.06l-2.06-2.06 2.06-2.06 2.06 2.06-2.06 2.06zm12.12 0l-2.06-2.06 2.06-2.06 2.06 2.06-2.06 2.06zm-4.06 4.06l4.12 4.12 1.98-1.98-4.12-4.12 2-1.98-2.06-2.06-6.12 6.12 2.06 2.06 2.06-2.06v4.95h2.8v-4.95l-.68-.07zm-2.8-2.86l-2.06-2.06 2.06-2.06 2.06 2.06-2.06 2.06zm0-4.12l-2.06-2.06 2.06-2.06 2.06 2.06-2.06 2.06zm2.8 8.04v2.81h-2.8v-2.81h2.8zm0-16.83h-2.8v4.95h2.8v-4.95z"/>
</svg>
